<svg width="0" height="0" class="hidden">
  <symbol viewBox="0 0 64 60" fill="none" xmlns="http://www.w3.org/2000/svg" id="logo">
    <g clip-path="url(#clip0_12_30)" filter="url(#filter0_d_12_30)">
    <path d="M50 12.36L27.18 35.2L18.7 26.72L21.52 23.9L27.18 29.56L47.18 9.56L50 12.36ZM30 42C21.18 42 14 34.82 14 26C14 17.18 21.18 10 30 10C33.14 10 36.08 10.92 38.56 12.5L41.46 9.6C38.2 7.34 34.26 6 30 6C18.96 6 10 14.96 10 26C10 37.04 18.96 46 30 46C33.46 46 36.72 45.12 39.56 43.56L36.56 40.56C34.56 41.48 32.34 42 30 42ZM44 32H38V36H44V42H48V36H54V32H48V26H44V32Z" fill="#F28743"/>
    </g>
    <defs>
    <filter id="filter0_d_12_30" x="-4" y="-4" width="68" height="68"     filterUnits="userSpaceOnUse" color-interpolation-filters="sRGB">
    <feFlood flood-opacity="0" result="BackgroundImageFix"/>
    <feColorMatrix in="SourceAlpha" type="matrix" values="0 0 0 0 0 0 0 0 0 0 0 0 0 0 0 0 0 0 127 0" result="hardAlpha"/>
    <feOffset dy="4"/>
    <feGaussianBlur stdDeviation="5"/>
    <feComposite in2="hardAlpha" operator="out"/>
    <feColorMatrix type="matrix" values="0 0 0 0 0 0 0 0 0 0 0 0 0 0 0 0 0 0 0.25 0"/>
    <feBlend mode="normal" in2="BackgroundImageFix" result="effect1_dropShadow_12_30"/>
    <feBlend mode="normal" in="SourceGraphic" in2="effect1_dropShadow_12_30" result="shape"/>
    </filter>
    <clipPath id="clip0_12_30">
    <rect width="48" height="48" fill="white" transform="translate(6 2)"/>
    </clipPath>
    </defs>
  </symbol>

  <symbol viewBox="0 0 24 24" fill="none" xmlns="http://www.w3.org/2000/svg" id="point">
    <path d="M12 0L8.72727 8.72727L0 12L8.72727 15.2727L12 24L15.2727 15.2727L24 12L15.2727 8.72727L12 0Z" fill="#F28743"/>
  </symbol>

  <symbol viewBox="0 0 60 60" fill="none" xmlns="http://www.w3.org/2000/svg" id="btn-next">
    <path d="M52.7501 30.4157C50.8603 28.5259 47.8057 28.5259 45.9159 30.4157L34.8332 41.4983V4.83325C34.8332 2.1653 32.6728 0 30 0C27.3272 0 25.1667 2.1653 25.1667 4.83325V41.4983L14.0841 30.4157C12.1943 28.5259 9.13967 28.5259 7.24987 30.4157C5.36007 32.3055 5.36007 35.3601 7.24987 37.2499L30 60L52.7501 37.2499C54.6399 35.3601 54.6399 32.3055 52.7501 30.4157Z" fill="#F28743"/>
  </symbol>

  <symbol viewBox="0 0 60 60" fill="none" xmlns="http://www.w3.org/2000/svg" id="btn-prev">
    <path d="M7.24989 29.5843C9.13969 31.4741 12.1943 31.4741 14.0841 29.5843L25.1668 18.5017V55.1667C25.1668 57.8347 27.3272 60 30 60C32.6728 60 34.8333 57.8347 34.8333 55.1667V18.5017L45.9159 29.5843C47.8057 31.4741 50.8603 31.4741 52.7501 29.5843C54.6399 27.6945 54.6399 24.6399 52.7501 22.7501L30 5.53731e-07L7.24989 22.7501C5.36009 24.6399 5.36009 27.6945 7.24989 29.5843Z" fill="#BB31BE"/>
  </symbol>

  <symbol viewBox="0 0 24 24" fill="none" xmlns="http://www.w3.org/2000/svg" id="close-modal">
    <path d="M16.7071 8.70699L13.4141 12L16.7071 15.293C16.8026 15.3852 16.8788 15.4956 16.9312 15.6176C16.9836 15.7396 17.0112 15.8708 17.0123 16.0036C17.0135 16.1364 16.9882 16.268 16.9379 16.3909C16.8876 16.5138 16.8134 16.6255 16.7195 16.7194C16.6256 16.8133 16.5139 16.8875 16.391 16.9378C16.2681 16.9881 16.1365 17.0134 16.0037 17.0122C15.8709 17.0111 15.7397 16.9835 15.6177 16.9311C15.4957 16.8787 15.3853 16.8025 15.2931 16.707L12.0001 13.414L8.70708 16.707C8.61483 16.8025 8.50449 16.8787 8.38249 16.9311C8.26048 16.9835 8.12926 17.0111 7.99648 17.0122C7.8637 17.0134 7.73202 16.9881 7.60913 16.9378C7.48623 16.8875 7.37458 16.8133 7.28069 16.7194C7.18679 16.6255 7.11254 16.5138 7.06226 16.3909C7.01198 16.268 6.98668 16.1364 6.98783 16.0036C6.98898 15.8708 7.01657 15.7396 7.06898 15.6176C7.12139 15.4956 7.19757 15.3852 7.29308 15.293L10.5861 12L7.29308 8.70699C7.19757 8.61474 7.12139 8.5044 7.06898 8.38239C7.01657 8.26039 6.98898 8.12917 6.98783 7.99639C6.98668 7.86361 7.01198 7.73193 7.06226 7.60904C7.11254 7.48614 7.18679 7.37449 7.28069 7.28059C7.37458 7.1867 7.48623 7.11245 7.60913 7.06217C7.73202 7.01189 7.8637 6.98659 7.99648 6.98774C8.12926 6.98889 8.26048 7.01648 8.38249 7.06889C8.50449 7.1213 8.61483 7.19748 8.70708 7.29299L12.0001 10.586L15.2931 7.29299C15.3853 7.19748 15.4957 7.1213 15.6177 7.06889C15.7397 7.01648 15.8709 6.98889 16.0037 6.98774C16.1365 6.98659 16.2681 7.01189 16.391 7.06217C16.5139 7.11245 16.6256 7.1867 16.7195 7.28059C16.8134 7.37449 16.8876 7.48614 16.9379 7.60904C16.9882 7.73193 17.0135 7.86361 17.0123 7.99639C17.0112 8.12917 16.9836 8.26039 16.9312 8.38239C16.8788 8.5044 16.8026 8.61474 16.7071 8.70699Z" fill="black"/>
  </symbol>

  <symbol viewBox="0 0 48 48" fill="none" xmlns="http://www.w3.org/2000/svg" id="menu">
    <path d="M36.4032 18.9281H18.0282C17.1001 18.9281 16.3501 18.0844 16.3501 17.0531C16.3501 16.0219 17.1001 15.1781 18.0282 15.1781H36.4032C37.3313 15.1781 38.0813 16.0219 38.0813 17.0531C38.0813 18.0844 37.3313 18.9281 36.4032 18.9281Z" fill="white"/>
    <path d="M12.3 19.4438C13.6204 19.4438 14.6907 18.3734 14.6907 17.0531C14.6907 15.7328 13.6204 14.6625 12.3 14.6625C10.9797 14.6625 9.90942 15.7328 9.90942 17.0531C9.90942 18.3734 10.9797 19.4438 12.3 19.4438Z" fill="white"/>
    <path d="M36.4032 25.875H18.0282C17.1001 25.875 16.3501 25.0312 16.3501 24C16.3501 22.9688 17.1001 22.125 18.0282 22.125H36.4032C37.3313 22.125 38.0813 22.9688 38.0813 24C38.0813 25.0312 37.3313 25.875 36.4032 25.875Z" fill="white"/>
    <path d="M12.3 26.3906C13.6204 26.3906 14.6907 25.3203 14.6907 24C14.6907 22.6797 13.6204 21.6094 12.3 21.6094C10.9797 21.6094 9.90942 22.6797 9.90942 24C9.90942 25.3203 10.9797 26.3906 12.3 26.3906Z" fill="white"/>
    <path d="M36.4032 32.8219H18.0282C17.1001 32.8219 16.3501 31.9781 16.3501 30.9469C16.3501 29.9156 17.1001 29.0719 18.0282 29.0719H36.4032C37.3313 29.0719 38.0813 29.9156 38.0813 30.9469C38.0813 31.9781 37.3313 32.8219 36.4032 32.8219Z" fill="white"/>
    <path d="M12.3 33.3375C13.6204 33.3375 14.6907 32.2672 14.6907 30.9469C14.6907 29.6266 13.6204 28.5562 12.3 28.5562C10.9797 28.5562 9.90942 29.6266 9.90942 30.9469C9.90942 32.2672 10.9797 33.3375 12.3 33.3375Z" fill="white"/>
  </symbol>


  <symbol viewBox="0 0 64 60" fill="none" xmlns="http://www.w3.org/2000/svg" id="logo-acc">
    <g clip-path="url(#clip0_43_5)" filter="url(#filter0_d_43_5)">
    <path d="M50 12.36L27.18 35.2L18.7 26.72L21.52 23.9L27.18 29.56L47.18 9.56L50 12.36ZM30 42C21.18 42 14 34.82 14 26C14 17.18 21.18 10 30 10C33.14 10 36.08 10.92 38.56 12.5L41.46 9.6C38.2 7.34 34.26 6 30 6C18.96 6 10 14.96 10 26C10 37.04 18.96 46 30 46C33.46 46 36.72 45.12 39.56 43.56L36.56 40.56C34.56 41.48 32.34 42 30 42ZM44 32H38V36H44V42H48V36H54V32H48V26H44V32Z" fill="#ffffff"/>
    </g>
    <defs>
    <filter id="filter0_d_43_5" x="-4" y="-4" width="68" height="68" filterUnits="userSpaceOnUse" color-interpolation-filters="sRGB">
    <feFlood flood-opacity="0" result="BackgroundImageFix"/>
    <feColorMatrix in="SourceAlpha" type="matrix" values="0 0 0 0 0 0 0 0 0 0 0 0 0 0 0 0 0 0 127 0" result="hardAlpha"/>
    <feOffset dy="4"/>
    <feGaussianBlur stdDeviation="5"/>
    <feComposite in2="hardAlpha" operator="out"/>
    <feColorMatrix type="matrix" values="0 0 0 0 0 0 0 0 0 0 0 0 0 0 0 0 0 0 0.25 0"/>
    <feBlend mode="normal" in2="BackgroundImageFix" result="effect1_dropShadow_43_5"/>
    <feBlend mode="normal" in="SourceGraphic" in2="effect1_dropShadow_43_5" result="shape"/>
    </filter>
    <clipPath id="clip0_43_5">
    <rect width="48" height="48" fill="white" transform="translate(6 2)"/>
    </clipPath>
    </defs>
  </symbol>

  <symbol viewBox="0 0 16 10" fill="none" xmlns="http://www.w3.org/2000/svg" id="dropdown">
    <g clip-path="url(#clip0_34_3)">
    <path fill-rule="evenodd" clip-rule="evenodd" d="M0 0H16L8 10L0 0Z" fill="white"/>
    </g>
    <defs>
    <clipPath id="clip0_34_3">
    <rect width="16" height="10" fill="white"/>
    </clipPath>
    </defs>
  </symbol>

  <symbol viewBox="0 0 24 24" fill="none" xmlns="http://www.w3.org/2000/svg" id="search">
    <g clip-path="url(#clip0_30_153)">
    <path d="M9.32922 0C4.17805 0 0.00134277 4.17671 0.00134277 9.32792C0.00134277 14.4791 4.17805 18.6558 9.32926 18.6558C11.3101 18.6558 13.1471 18.038 14.6572 16.9856L14.6582 16.9845L21.5763 23.9025C21.7046 24.0309 21.9088 24.0342 22.0405 23.9025L23.905 22.038C24.0333 21.9096 24.0268 21.6968 23.9039 21.5738L16.9869 14.6569C18.0393 13.1458 18.6571 11.3087 18.6571 9.32792C18.6571 4.17671 14.4804 0 9.32922 0ZM9.32922 16.461C5.38954 16.461 2.19611 13.2676 2.19611 9.32792C2.19611 5.38824 5.38958 2.19481 9.32922 2.19481C13.2689 2.19481 16.4623 5.38824 16.4623 9.32792C16.4623 13.2676 13.2689 16.461 9.32922 16.461Z" fill="#ffffff"/>
    </g>
    <defs>
    <clipPath id="clip0_30_153">
    <rect width="24" height="24" fill="white"/>
    </clipPath>
    </defs>
  </symbol>


</svg>