<svg width="0" height="0" class="hidden">
  <symbol viewBox="0 0 64 60" fill="none" xmlns="http://www.w3.org/2000/svg" id="logo">
    <g clip-path="url(#clip0_12_30)" filter="url(#filter0_d_12_30)">
    <path d="M50 12.36L27.18 35.2L18.7 26.72L21.52 23.9L27.18 29.56L47.18 9.56L50 12.36ZM30 42C21.18 42 14 34.82 14 26C14 17.18 21.18 10 30 10C33.14 10 36.08 10.92 38.56 12.5L41.46 9.6C38.2 7.34 34.26 6 30 6C18.96 6 10 14.96 10 26C10 37.04 18.96 46 30 46C33.46 46 36.72 45.12 39.56 43.56L36.56 40.56C34.56 41.48 32.34 42 30 42ZM44 32H38V36H44V42H48V36H54V32H48V26H44V32Z" fill="#F28743"/>
    </g>
    <defs>
    <filter id="filter0_d_12_30" x="-4" y="-4" width="68" height="68"     filterUnits="userSpaceOnUse" color-interpolation-filters="sRGB">
    <feFlood flood-opacity="0" result="BackgroundImageFix"/>
    <feColorMatrix in="SourceAlpha" type="matrix" values="0 0 0 0 0 0 0 0 0 0 0 0 0 0 0 0 0 0 127 0" result="hardAlpha"/>
    <feOffset dy="4"/>
    <feGaussianBlur stdDeviation="5"/>
    <feComposite in2="hardAlpha" operator="out"/>
    <feColorMatrix type="matrix" values="0 0 0 0 0 0 0 0 0 0 0 0 0 0 0 0 0 0 0.25 0"/>
    <feBlend mode="normal" in2="BackgroundImageFix" result="effect1_dropShadow_12_30"/>
    <feBlend mode="normal" in="SourceGraphic" in2="effect1_dropShadow_12_30" result="shape"/>
    </filter>
    <clipPath id="clip0_12_30">
    <rect width="48" height="48" fill="white" transform="translate(6 2)"/>
    </clipPath>
    </defs>
  </symbol>

  <symbol viewBox="0 0 24 24" fill="none" xmlns="http://www.w3.org/2000/svg" id="point">
    <path d="M12 0L8.72727 8.72727L0 12L8.72727 15.2727L12 24L15.2727 15.2727L24 12L15.2727 8.72727L12 0Z" fill="#F28743"/>
  </symbol>

  <symbol viewBox="0 0 60 60" fill="none" xmlns="http://www.w3.org/2000/svg" id="btn-next">
    <path d="M52.7501 30.4157C50.8603 28.5259 47.8057 28.5259 45.9159 30.4157L34.8332 41.4983V4.83325C34.8332 2.1653 32.6728 0 30 0C27.3272 0 25.1667 2.1653 25.1667 4.83325V41.4983L14.0841 30.4157C12.1943 28.5259 9.13967 28.5259 7.24987 30.4157C5.36007 32.3055 5.36007 35.3601 7.24987 37.2499L30 60L52.7501 37.2499C54.6399 35.3601 54.6399 32.3055 52.7501 30.4157Z" fill="#F28743"/>
  </symbol>

  <symbol viewBox="0 0 60 60" fill="none" xmlns="http://www.w3.org/2000/svg" id="btn-prev">
    <path d="M7.24989 29.5843C9.13969 31.4741 12.1943 31.4741 14.0841 29.5843L25.1668 18.5017V55.1667C25.1668 57.8347 27.3272 60 30 60C32.6728 60 34.8333 57.8347 34.8333 55.1667V18.5017L45.9159 29.5843C47.8057 31.4741 50.8603 31.4741 52.7501 29.5843C54.6399 27.6945 54.6399 24.6399 52.7501 22.7501L30 5.53731e-07L7.24989 22.7501C5.36009 24.6399 5.36009 27.6945 7.24989 29.5843Z" fill="#BB31BE"/>
  </symbol>




</svg>