<svg width="0" height="0" class="hidden">
  <symbol viewBox="0 0 64 60" fill="none" xmlns="http://www.w3.org/2000/svg" id="logo">
    <g clip-path="url(#clip0_12_30)" filter="url(#filter0_d_12_30)">
    <path d="M50 12.36L27.18 35.2L18.7 26.72L21.52 23.9L27.18 29.56L47.18 9.56L50 12.36ZM30 42C21.18 42 14 34.82 14 26C14 17.18 21.18 10 30 10C33.14 10 36.08 10.92 38.56 12.5L41.46 9.6C38.2 7.34 34.26 6 30 6C18.96 6 10 14.96 10 26C10 37.04 18.96 46 30 46C33.46 46 36.72 45.12 39.56 43.56L36.56 40.56C34.56 41.48 32.34 42 30 42ZM44 32H38V36H44V42H48V36H54V32H48V26H44V32Z" fill="#F28743"/>
    </g>
    <defs>
    <filter id="filter0_d_12_30" x="-4" y="-4" width="68" height="68"     filterUnits="userSpaceOnUse" color-interpolation-filters="sRGB">
    <feFlood flood-opacity="0" result="BackgroundImageFix"/>
    <feColorMatrix in="SourceAlpha" type="matrix" values="0 0 0 0 0 0 0 0 0 0 0 0 0 0 0 0 0 0 127 0" result="hardAlpha"/>
    <feOffset dy="4"/>
    <feGaussianBlur stdDeviation="5"/>
    <feComposite in2="hardAlpha" operator="out"/>
    <feColorMatrix type="matrix" values="0 0 0 0 0 0 0 0 0 0 0 0 0 0 0 0 0 0 0.25 0"/>
    <feBlend mode="normal" in2="BackgroundImageFix" result="effect1_dropShadow_12_30"/>
    <feBlend mode="normal" in="SourceGraphic" in2="effect1_dropShadow_12_30" result="shape"/>
    </filter>
    <clipPath id="clip0_12_30">
    <rect width="48" height="48" fill="white" transform="translate(6 2)"/>
    </clipPath>
    </defs>
  </symbol>

  <symbol viewBox="0 0 24 24" fill="none" xmlns="http://www.w3.org/2000/svg" id="point">
    <path d="M12 0L8.72727 8.72727L0 12L8.72727 15.2727L12 24L15.2727 15.2727L24 12L15.2727 8.72727L12 0Z" fill="#F28743"/>
  </symbol>

  <symbol viewBox="0 0 60 60" fill="none" xmlns="http://www.w3.org/2000/svg" id="btn-next">
    <path d="M52.7501 30.4157C50.8603 28.5259 47.8057 28.5259 45.9159 30.4157L34.8332 41.4983V4.83325C34.8332 2.1653 32.6728 0 30 0C27.3272 0 25.1667 2.1653 25.1667 4.83325V41.4983L14.0841 30.4157C12.1943 28.5259 9.13967 28.5259 7.24987 30.4157C5.36007 32.3055 5.36007 35.3601 7.24987 37.2499L30 60L52.7501 37.2499C54.6399 35.3601 54.6399 32.3055 52.7501 30.4157Z" fill="#F28743"/>
  </symbol>

  <symbol viewBox="0 0 60 60" fill="none" xmlns="http://www.w3.org/2000/svg" id="btn-prev">
    <path d="M7.24989 29.5843C9.13969 31.4741 12.1943 31.4741 14.0841 29.5843L25.1668 18.5017V55.1667C25.1668 57.8347 27.3272 60 30 60C32.6728 60 34.8333 57.8347 34.8333 55.1667V18.5017L45.9159 29.5843C47.8057 31.4741 50.8603 31.4741 52.7501 29.5843C54.6399 27.6945 54.6399 24.6399 52.7501 22.7501L30 5.53731e-07L7.24989 22.7501C5.36009 24.6399 5.36009 27.6945 7.24989 29.5843Z" fill="#BB31BE"/>
  </symbol>

  <symbol viewBox="0 0 24 24" fill="none" xmlns="http://www.w3.org/2000/svg" id="close-modal">
    <path d="M16.7071 8.70699L13.4141 12L16.7071 15.293C16.8026 15.3852 16.8788 15.4956 16.9312 15.6176C16.9836 15.7396 17.0112 15.8708 17.0123 16.0036C17.0135 16.1364 16.9882 16.268 16.9379 16.3909C16.8876 16.5138 16.8134 16.6255 16.7195 16.7194C16.6256 16.8133 16.5139 16.8875 16.391 16.9378C16.2681 16.9881 16.1365 17.0134 16.0037 17.0122C15.8709 17.0111 15.7397 16.9835 15.6177 16.9311C15.4957 16.8787 15.3853 16.8025 15.2931 16.707L12.0001 13.414L8.70708 16.707C8.61483 16.8025 8.50449 16.8787 8.38249 16.9311C8.26048 16.9835 8.12926 17.0111 7.99648 17.0122C7.8637 17.0134 7.73202 16.9881 7.60913 16.9378C7.48623 16.8875 7.37458 16.8133 7.28069 16.7194C7.18679 16.6255 7.11254 16.5138 7.06226 16.3909C7.01198 16.268 6.98668 16.1364 6.98783 16.0036C6.98898 15.8708 7.01657 15.7396 7.06898 15.6176C7.12139 15.4956 7.19757 15.3852 7.29308 15.293L10.5861 12L7.29308 8.70699C7.19757 8.61474 7.12139 8.5044 7.06898 8.38239C7.01657 8.26039 6.98898 8.12917 6.98783 7.99639C6.98668 7.86361 7.01198 7.73193 7.06226 7.60904C7.11254 7.48614 7.18679 7.37449 7.28069 7.28059C7.37458 7.1867 7.48623 7.11245 7.60913 7.06217C7.73202 7.01189 7.8637 6.98659 7.99648 6.98774C8.12926 6.98889 8.26048 7.01648 8.38249 7.06889C8.50449 7.1213 8.61483 7.19748 8.70708 7.29299L12.0001 10.586L15.2931 7.29299C15.3853 7.19748 15.4957 7.1213 15.6177 7.06889C15.7397 7.01648 15.8709 6.98889 16.0037 6.98774C16.1365 6.98659 16.2681 7.01189 16.391 7.06217C16.5139 7.11245 16.6256 7.1867 16.7195 7.28059C16.8134 7.37449 16.8876 7.48614 16.9379 7.60904C16.9882 7.73193 17.0135 7.86361 17.0123 7.99639C17.0112 8.12917 16.9836 8.26039 16.9312 8.38239C16.8788 8.5044 16.8026 8.61474 16.7071 8.70699Z" fill="black"/>
  </symbol>

  <symbol viewBox="0 0 48 48" fill="none" xmlns="http://www.w3.org/2000/svg" id="menu">
    <path d="M36.4032 18.9281H18.0282C17.1001 18.9281 16.3501 18.0844 16.3501 17.0531C16.3501 16.0219 17.1001 15.1781 18.0282 15.1781H36.4032C37.3313 15.1781 38.0813 16.0219 38.0813 17.0531C38.0813 18.0844 37.3313 18.9281 36.4032 18.9281Z" fill="white"/>
    <path d="M12.3 19.4438C13.6204 19.4438 14.6907 18.3734 14.6907 17.0531C14.6907 15.7328 13.6204 14.6625 12.3 14.6625C10.9797 14.6625 9.90942 15.7328 9.90942 17.0531C9.90942 18.3734 10.9797 19.4438 12.3 19.4438Z" fill="white"/>
    <path d="M36.4032 25.875H18.0282C17.1001 25.875 16.3501 25.0312 16.3501 24C16.3501 22.9688 17.1001 22.125 18.0282 22.125H36.4032C37.3313 22.125 38.0813 22.9688 38.0813 24C38.0813 25.0312 37.3313 25.875 36.4032 25.875Z" fill="white"/>
    <path d="M12.3 26.3906C13.6204 26.3906 14.6907 25.3203 14.6907 24C14.6907 22.6797 13.6204 21.6094 12.3 21.6094C10.9797 21.6094 9.90942 22.6797 9.90942 24C9.90942 25.3203 10.9797 26.3906 12.3 26.3906Z" fill="white"/>
    <path d="M36.4032 32.8219H18.0282C17.1001 32.8219 16.3501 31.9781 16.3501 30.9469C16.3501 29.9156 17.1001 29.0719 18.0282 29.0719H36.4032C37.3313 29.0719 38.0813 29.9156 38.0813 30.9469C38.0813 31.9781 37.3313 32.8219 36.4032 32.8219Z" fill="white"/>
    <path d="M12.3 33.3375C13.6204 33.3375 14.6907 32.2672 14.6907 30.9469C14.6907 29.6266 13.6204 28.5562 12.3 28.5562C10.9797 28.5562 9.90942 29.6266 9.90942 30.9469C9.90942 32.2672 10.9797 33.3375 12.3 33.3375Z" fill="white"/>
  </symbol>


  <symbol viewBox="0 0 64 60" fill="none" xmlns="http://www.w3.org/2000/svg" id="logo-acc">
    <g clip-path="url(#clip0_43_5)" filter="url(#filter0_d_43_5)">
    <path d="M50 12.36L27.18 35.2L18.7 26.72L21.52 23.9L27.18 29.56L47.18 9.56L50 12.36ZM30 42C21.18 42 14 34.82 14 26C14 17.18 21.18 10 30 10C33.14 10 36.08 10.92 38.56 12.5L41.46 9.6C38.2 7.34 34.26 6 30 6C18.96 6 10 14.96 10 26C10 37.04 18.96 46 30 46C33.46 46 36.72 45.12 39.56 43.56L36.56 40.56C34.56 41.48 32.34 42 30 42ZM44 32H38V36H44V42H48V36H54V32H48V26H44V32Z" fill="#ffffff"/>
    </g>
    <defs>
    <filter id="filter0_d_43_5" x="-4" y="-4" width="68" height="68" filterUnits="userSpaceOnUse" color-interpolation-filters="sRGB">
    <feFlood flood-opacity="0" result="BackgroundImageFix"/>
    <feColorMatrix in="SourceAlpha" type="matrix" values="0 0 0 0 0 0 0 0 0 0 0 0 0 0 0 0 0 0 127 0" result="hardAlpha"/>
    <feOffset dy="4"/>
    <feGaussianBlur stdDeviation="5"/>
    <feComposite in2="hardAlpha" operator="out"/>
    <feColorMatrix type="matrix" values="0 0 0 0 0 0 0 0 0 0 0 0 0 0 0 0 0 0 0.25 0"/>
    <feBlend mode="normal" in2="BackgroundImageFix" result="effect1_dropShadow_43_5"/>
    <feBlend mode="normal" in="SourceGraphic" in2="effect1_dropShadow_43_5" result="shape"/>
    </filter>
    <clipPath id="clip0_43_5">
    <rect width="48" height="48" fill="white" transform="translate(6 2)"/>
    </clipPath>
    </defs>
  </symbol>

  <symbol viewBox="0 0 16 10" fill="none" xmlns="http://www.w3.org/2000/svg" id="dropdown">
    <g clip-path="url(#clip0_34_3)">
    <path fill-rule="evenodd" clip-rule="evenodd" d="M0 0H16L8 10L0 0Z" fill="white"/>
    </g>
    <defs>
    <clipPath id="clip0_34_3">
    <rect width="16" height="10" fill="white"/>
    </clipPath>
    </defs>
  </symbol>

  <symbol viewBox="0 0 24 24" fill="none" xmlns="http://www.w3.org/2000/svg" id="search">
    <g clip-path="url(#clip0_30_153)">
    <path d="M9.32922 0C4.17805 0 0.00134277 4.17671 0.00134277 9.32792C0.00134277 14.4791 4.17805 18.6558 9.32926 18.6558C11.3101 18.6558 13.1471 18.038 14.6572 16.9856L14.6582 16.9845L21.5763 23.9025C21.7046 24.0309 21.9088 24.0342 22.0405 23.9025L23.905 22.038C24.0333 21.9096 24.0268 21.6968 23.9039 21.5738L16.9869 14.6569C18.0393 13.1458 18.6571 11.3087 18.6571 9.32792C18.6571 4.17671 14.4804 0 9.32922 0ZM9.32922 16.461C5.38954 16.461 2.19611 13.2676 2.19611 9.32792C2.19611 5.38824 5.38958 2.19481 9.32922 2.19481C13.2689 2.19481 16.4623 5.38824 16.4623 9.32792C16.4623 13.2676 13.2689 16.461 9.32922 16.461Z" fill="#ffffff"/>
    </g>
    <defs>
    <clipPath id="clip0_30_153">
    <rect width="24" height="24" fill="white"/>
    </clipPath>
    </defs>
  </symbol>

  <symbol viewBox="0 0 24 24" fill="none" xmlns="http://www.w3.org/2000/svg" id="house">
    <path d="M22.5 11.3623C22.3437 11.3613 22.1917 11.312 22.065 11.2211L12 4.0994L1.93505 11.2211C1.77358 11.3159 1.58212 11.3472 1.39847 11.3089C1.21482 11.2706 1.05233 11.1655 0.943067 11.0143C0.833809 10.863 0.785726 10.6767 0.808308 10.492C0.830891 10.3073 0.9225 10.1378 1.06505 10.0168L11.565 2.58288C11.6921 2.49324 11.8441 2.44507 12 2.44507C12.156 2.44507 12.308 2.49324 12.435 2.58288L22.935 10.0168C23.0631 10.1087 23.1586 10.2383 23.2079 10.3872C23.2572 10.5361 23.2577 10.6966 23.2095 10.8458C23.1612 10.995 23.0667 11.1253 22.9393 11.2181C22.8118 11.3109 22.6581 11.3613 22.5 11.3623Z" fill="white"/>
    <path d="M3.75 6.90197C3.55109 6.90197 3.36032 6.82365 3.21967 6.68424C3.07902 6.54482 3 6.35574 3 6.15858V3.18501C3 2.98785 3.07902 2.79877 3.21967 2.65935C3.36032 2.51994 3.55109 2.44162 3.75 2.44162H6.75C6.94891 2.44162 7.13968 2.51994 7.28033 2.65935C7.42098 2.79877 7.5 2.98785 7.5 3.18501C7.5 3.38217 7.42098 3.57126 7.28033 3.71067C7.13968 3.85008 6.94891 3.9284 6.75 3.9284H4.5V6.15858C4.5 6.35574 4.42098 6.54482 4.28033 6.68424C4.13968 6.82365 3.94891 6.90197 3.75 6.90197Z" fill="white"/>
    <path d="M18.75 21.7698H15C14.8011 21.7698 14.6103 21.6915 14.4697 21.5521C14.329 21.4127 14.25 21.2236 14.25 21.0264V15.8227H9.75V21.0264C9.75 21.2236 9.67098 21.4127 9.53033 21.5521C9.38968 21.6915 9.19891 21.7698 9 21.7698H5.25C4.65326 21.7698 4.08097 21.5349 3.65901 21.1166C3.23705 20.6984 3 20.1311 3 19.5396V12.1057C3 11.9086 3.07902 11.7195 3.21967 11.5801C3.36032 11.4407 3.55109 11.3623 3.75 11.3623C3.94891 11.3623 4.13968 11.4407 4.28033 11.5801C4.42098 11.7195 4.5 11.9086 4.5 12.1057V19.5396C4.5 19.7368 4.57902 19.9259 4.71967 20.0653C4.86032 20.2047 5.05109 20.283 5.25 20.283H8.25V15.0793C8.25 14.8821 8.32902 14.6931 8.46967 14.5536C8.61032 14.4142 8.80109 14.3359 9 14.3359H15C15.1989 14.3359 15.3897 14.4142 15.5303 14.5536C15.671 14.6931 15.75 14.8821 15.75 15.0793V20.283H18.75C18.9489 20.283 19.1397 20.2047 19.2803 20.0653C19.421 19.9259 19.5 19.7368 19.5 19.5396V12.1057C19.5 11.9086 19.579 11.7195 19.7197 11.5801C19.8603 11.4407 20.0511 11.3623 20.25 11.3623C20.4489 11.3623 20.6397 11.4407 20.7803 11.5801C20.921 11.7195 21 11.9086 21 12.1057V19.5396C21 20.1311 20.7629 20.6984 20.341 21.1166C19.919 21.5349 19.3467 21.7698 18.75 21.7698Z" fill="white"/>
  </symbol>

  <symbol viewBox="0 0 24 24" fill="none" xmlns="http://www.w3.org/2000/svg" id="projects">
    <path d="M22 14.3414C21.3744 14.1203 20.7013 14 20 14C18.7733 14 17.6325 14.3682 16.6822 15H8V17H14.8027C14.4513 17.6074 14.2034 18.2821 14.083 19H6V11H2V5H18V9H22V14.3414ZM4 7V9H16V7H4ZM8 13H20V11H8V13ZM21 19H23C23.5523 19 24 19.4477 24 20C24 20.5523 23.5523 21 23 21H21V23C21 23.5523 20.5523 24 20 24C19.4477 24 19 23.5523 19 23V21H17C16.4477 21 16 20.5523 16 20C16 19.4477 16.4477 19 17 19H19V17C19 16.4477 19.4477 16 20 16C20.5523 16 21 16.4477 21 17V19Z" fill="#ffffff"/>
  </symbol>

  <symbol viewBox="0 0 24 24" fill="none" xmlns="http://www.w3.org/2000/svg" id="timer">
    <path d="M18.375 13.8066C18.3761 12.1325 17.7167 10.5257 16.5398 9.33515C16.53 9.32216 16.5194 9.30979 16.508 9.29812C16.4961 9.28673 16.4836 9.27608 16.4705 9.26624C15.2803 8.0894 13.6738 7.42975 12 7.43062C10.3261 7.42963 8.71937 8.08928 7.52907 9.26624C7.50279 9.2858 7.47943 9.309 7.45969 9.33515C6.28305 10.5258 5.62374 12.1326 5.625 13.8066C5.62394 15.4804 6.28341 17.0871 7.46016 18.2775C7.47001 18.2905 7.48065 18.3029 7.49204 18.3145C7.50386 18.3261 7.51638 18.3369 7.52954 18.3469C8.71989 19.5234 10.3263 20.1829 12 20.182C13.6738 20.183 15.2805 19.5235 16.4709 18.3469C16.4971 18.327 16.5204 18.3036 16.5403 18.2775C17.7169 17.087 18.3762 15.4803 18.375 13.8066ZM17.0039 14.1816H17.6133C17.5322 15.4127 17.0469 16.5826 16.2328 17.5097L15.8044 17.0817C15.7335 17.0144 15.6391 16.9774 15.5413 16.9786C15.4435 16.9799 15.3501 17.0193 15.2809 17.0884C15.2118 17.1576 15.1724 17.251 15.1711 17.3488C15.1699 17.4466 15.2069 17.541 15.2742 17.6119L15.7022 18.0398C14.7753 18.8543 13.6053 19.3397 12.3741 19.4208V18.8114C12.3741 18.7119 12.3346 18.6166 12.2642 18.5462C12.1939 18.4759 12.0985 18.4364 11.9991 18.4364C11.8996 18.4364 11.8042 18.4759 11.7339 18.5462C11.6636 18.6166 11.6241 18.7119 11.6241 18.8114V19.4208C10.3929 19.3393 9.22308 18.8539 8.29594 18.0398L8.72391 17.6119C8.75875 17.5771 8.7864 17.5357 8.80526 17.4902C8.82413 17.4447 8.83385 17.396 8.83388 17.3467C8.8339 17.2975 8.82422 17.2487 8.80539 17.2032C8.78656 17.1577 8.75896 17.1163 8.72415 17.0815C8.68934 17.0466 8.648 17.019 8.60251 17.0001C8.55701 16.9813 8.50825 16.9715 8.459 16.9715C8.40975 16.9715 8.36097 16.9812 8.31546 17C8.26995 17.0188 8.2286 17.0464 8.19376 17.0812L7.76532 17.5097C6.95119 16.5826 6.46592 15.4127 6.38485 14.1816H6.99422C7.09368 14.1816 7.18906 14.142 7.25939 14.0717C7.32971 14.0014 7.36922 13.906 7.36922 13.8066C7.36922 13.7071 7.32971 13.6117 7.25939 13.5414C7.18906 13.4711 7.09368 13.4316 6.99422 13.4316H6.38485C6.46603 12.2004 6.95128 11.0306 7.76532 10.1034L8.19376 10.5319C8.26465 10.5992 8.35906 10.6362 8.45684 10.635C8.55463 10.6337 8.64806 10.5943 8.71721 10.5252C8.78636 10.456 8.82576 10.3626 8.82701 10.2648C8.82827 10.167 8.79127 10.0726 8.72391 10.0017L8.29688 9.57421C9.22395 8.76009 10.3939 8.27482 11.625 8.19374V8.80312C11.625 8.90258 11.6645 8.99796 11.7348 9.06828C11.8052 9.13861 11.9005 9.17812 12 9.17812C12.0995 9.17812 12.1948 9.13861 12.2652 9.06828C12.3355 8.99796 12.375 8.90258 12.375 8.80312V8.19374C13.6061 8.27482 14.7761 8.76009 15.7031 9.57421L15.2752 10.0027C15.2078 10.0735 15.1708 10.168 15.1721 10.2657C15.1733 10.3635 15.2127 10.457 15.2819 10.5261C15.351 10.5953 15.4444 10.6347 15.5422 10.6359C15.64 10.6372 15.7344 10.6002 15.8053 10.5328L16.2338 10.1044C17.0478 11.0315 17.533 12.2014 17.6142 13.4325H17.0048C16.9054 13.4325 16.81 13.472 16.7397 13.5423C16.6694 13.6127 16.6298 13.708 16.6298 13.8075C16.6298 13.9069 16.6694 14.0023 16.7397 14.0727C16.81 14.143 16.9054 14.1825 17.0048 14.1825L17.0039 14.1816ZM18.247 9.01734L19.4498 7.81499C19.4847 7.78017 19.5124 7.73881 19.5312 7.69328C19.5501 7.64776 19.5598 7.59896 19.5598 7.54968C19.5598 7.5004 19.5501 7.4516 19.5312 7.40608C19.5124 7.36055 19.4847 7.3192 19.4498 7.28437L18.5217 6.35624C18.4869 6.32138 18.4455 6.29372 18.4 6.27485C18.3545 6.25598 18.3057 6.24626 18.2564 6.24626C18.2071 6.24626 18.1583 6.25598 18.1128 6.27485C18.0673 6.29372 18.0259 6.32138 17.9911 6.35624L16.7888 7.55859C15.6953 6.7173 14.3991 6.17965 13.0313 5.99999V4.67671H14.0002C14.0996 4.67671 14.195 4.6372 14.2653 4.56688C14.3357 4.49655 14.3752 4.40117 14.3752 4.30171V2.69296C14.3752 2.59351 14.3357 2.49812 14.2653 2.4278C14.195 2.35747 14.0996 2.31796 14.0002 2.31796H9.99985C9.90039 2.31796 9.80501 2.35747 9.73468 2.4278C9.66436 2.49812 9.62485 2.59351 9.62485 2.69296V4.30171C9.62485 4.40117 9.66436 4.49655 9.73468 4.56688C9.80501 4.6372 9.90039 4.67671 9.99985 4.67671H10.9688V5.99999C9.60056 6.1799 8.30416 6.71805 7.21079 7.55999L6.00844 6.35624C5.97361 6.32138 5.93226 6.29372 5.88673 6.27485C5.84121 6.25598 5.79241 6.24626 5.74313 6.24626C5.69385 6.24626 5.64505 6.25598 5.59953 6.27485C5.554 6.29372 5.51264 6.32138 5.47782 6.35624L4.54969 7.28437C4.51483 7.3192 4.48717 7.36055 4.4683 7.40608C4.44942 7.4516 4.43971 7.5004 4.43971 7.54968C4.43971 7.59896 4.44942 7.64776 4.4683 7.69328C4.48717 7.73881 4.51483 7.78017 4.54969 7.81499L5.7525 9.01734C4.69542 10.3899 4.12308 12.0741 4.125 13.8066C4.125 18.1491 7.65797 21.6816 12 21.6816C16.342 21.6816 19.875 18.1486 19.875 13.8066C19.8769 12.0741 19.3046 10.3899 18.2475 9.01734H18.247ZM18.2564 7.15171L18.6544 7.54968L17.7609 8.44265C17.6334 8.30578 17.5009 8.17328 17.3634 8.04515L18.2564 7.15171ZM10.3748 3.06796H13.6252V3.92671H10.3748V3.06796ZM11.7188 4.67671H12.2813V5.93624C12.1875 5.93296 12.0938 5.93062 12 5.93062C11.9063 5.93062 11.8125 5.93062 11.7188 5.93624V4.67671ZM5.34375 7.54968L5.74172 7.15171L6.63516 8.04515C6.49766 8.17328 6.365 8.30578 6.23719 8.44265L5.34375 7.54968ZM12 20.932C8.07094 20.932 4.875 17.7356 4.875 13.807C4.875 9.87843 8.07141 6.68203 12 6.68203C15.9286 6.68203 19.125 9.8789 19.125 13.807C19.125 17.7351 15.9291 20.932 12 20.932ZM13.6795 14.9531C13.7498 15.0235 13.7893 15.1189 13.7893 15.2184C13.7892 15.3178 13.7497 15.4132 13.6793 15.4835C13.6445 15.5183 13.6031 15.5459 13.5576 15.5648C13.5121 15.5836 13.4633 15.5933 13.4141 15.5932C13.3146 15.5932 13.2192 15.5536 13.1489 15.4833L11.7347 14.0719C11.7263 14.0634 11.7178 14.0541 11.7098 14.0447L11.6995 14.0306L11.6883 14.0152C11.6845 14.0095 11.6813 14.0039 11.678 13.9983C11.6749 13.9936 11.6721 13.9887 11.6695 13.9837C11.6663 13.978 11.6634 13.9721 11.6611 13.9659C11.6583 13.9608 11.6559 13.9556 11.6536 13.9505C11.6513 13.9453 11.6494 13.9387 11.647 13.9331C11.6447 13.9275 11.6428 13.9219 11.6414 13.9158C11.64 13.9097 11.6381 13.9041 11.6367 13.8984C11.6353 13.8928 11.6334 13.8862 11.6325 13.8801C11.6316 13.8741 11.6325 13.8661 11.6292 13.8591C11.6259 13.852 11.6292 13.8492 11.6269 13.8441C11.6262 13.8317 11.6262 13.8194 11.6269 13.807V10.1634C11.6269 10.064 11.6664 9.96859 11.7367 9.89827C11.807 9.82794 11.9024 9.78843 12.0019 9.78843C12.1013 9.78843 12.1967 9.82794 12.267 9.89827C12.3374 9.96859 12.3769 10.064 12.3769 10.1634V13.6509L13.6795 14.9531Z" fill="white"/>
  </symbol>

  <symbol viewBox="0 0 24 12" fill="none" xmlns="http://www.w3.org/2000/svg" id="analytics">
    <path d="M0.989121 11.8359C0.754746 11.8359 0.520372 11.7188 0.389122 11.5031C0.182872 11.1703 0.285997 10.7344 0.618809 10.5328L5.89693 7.25625C6.09381 7.13438 6.34225 7.11563 6.55787 7.20938L11.5407 9.44063L21.3751 1.93125C21.6844 1.69688 22.1297 1.75313 22.3641 2.0625C22.5985 2.37188 22.5422 2.81719 22.2329 3.05157L12.061 10.8141C11.8547 10.9734 11.5782 11.0016 11.3438 10.8984L6.31881 8.65313L1.35943 11.7281C1.24225 11.7984 1.11568 11.8359 0.989121 11.8359Z" fill="white"/>
    <path d="M17.5781 1.63125L23.7188 0.164062L21.9188 6.21563L17.5781 1.63125Z" fill="white"/>
  </symbol>


</svg>