<svg width="0" height="0" class="hidden">
  <symbol viewBox="0 0 64 60" fill="none" xmlns="http://www.w3.org/2000/svg" id="logo">
    <g clip-path="url(#clip0_12_30)" filter="url(#filter0_d_12_30)">
    <path d="M50 12.36L27.18 35.2L18.7 26.72L21.52 23.9L27.18 29.56L47.18 9.56L50 12.36ZM30 42C21.18 42 14 34.82 14 26C14 17.18 21.18 10 30 10C33.14 10 36.08 10.92 38.56 12.5L41.46 9.6C38.2 7.34 34.26 6 30 6C18.96 6 10 14.96 10 26C10 37.04 18.96 46 30 46C33.46 46 36.72 45.12 39.56 43.56L36.56 40.56C34.56 41.48 32.34 42 30 42ZM44 32H38V36H44V42H48V36H54V32H48V26H44V32Z" fill="#F28743"/>
    </g>
    <defs>
    <filter id="filter0_d_12_30" x="-4" y="-4" width="68" height="68"     filterUnits="userSpaceOnUse" color-interpolation-filters="sRGB">
    <feFlood flood-opacity="0" result="BackgroundImageFix"/>
    <feColorMatrix in="SourceAlpha" type="matrix" values="0 0 0 0 0 0 0 0 0 0 0 0 0 0 0 0 0 0 127 0" result="hardAlpha"/>
    <feOffset dy="4"/>
    <feGaussianBlur stdDeviation="5"/>
    <feComposite in2="hardAlpha" operator="out"/>
    <feColorMatrix type="matrix" values="0 0 0 0 0 0 0 0 0 0 0 0 0 0 0 0 0 0 0.25 0"/>
    <feBlend mode="normal" in2="BackgroundImageFix" result="effect1_dropShadow_12_30"/>
    <feBlend mode="normal" in="SourceGraphic" in2="effect1_dropShadow_12_30" result="shape"/>
    </filter>
    <clipPath id="clip0_12_30">
    <rect width="48" height="48" fill="white" transform="translate(6 2)"/>
    </clipPath>
    </defs>
  </symbol>


</svg>